<svg id="svg" version="1.1" width="400" height="400" viewBox="0 0 400 400" xmlns="http://www.w3.org/2000/svg"><path d="M250.227 9.800 L 249.159 11.200 239.208 11.200 C 231.239 11.200,229.152 11.311,228.729 11.755 C 228.438 12.061,227.911 12.646,227.557 13.055 C 227.204 13.465,226.529 14.113,226.057 14.496 C 225.444 14.994,225.200 15.640,225.200 16.768 C 225.200 19.495,224.888 19.600,216.792 19.600 L 209.641 19.600 208.573 21.000 L 207.505 22.400 200.333 22.400 L 193.162 22.400 191.181 24.381 C 189.485 26.077,189.200 26.586,189.200 27.919 C 189.200 30.449,188.483 30.800,183.316 30.800 L 178.895 30.800 177.827 32.200 L 176.759 33.600 172.328 33.600 L 167.897 33.600 165.227 36.400 L 162.557 39.200 159.501 39.200 C 156.530 39.200,156.426 39.233,155.736 40.401 C 155.346 41.061,154.710 41.702,154.322 41.825 C 153.934 41.948,153.304 42.578,152.922 43.224 C 152.540 43.871,152.101 44.400,151.946 44.400 C 151.720 44.400,147.159 48.897,143.749 52.480 C 143.368 52.881,142.341 53.209,141.251 53.280 L 139.400 53.400 139.185 55.536 C 139.035 57.035,138.753 57.795,138.240 58.081 C 137.549 58.468,136.855 59.144,135.684 60.571 C 135.300 61.040,134.415 61.200,132.213 61.200 C 128.719 61.200,128.000 61.683,128.000 64.032 C 128.000 65.162,127.757 65.805,127.140 66.304 C 126.283 66.997,125.407 67.866,124.549 68.871 C 124.301 69.162,123.761 69.689,123.349 70.043 C 122.937 70.396,122.287 71.071,121.904 71.543 C 121.402 72.161,120.760 72.400,119.600 72.400 C 118.440 72.400,117.798 72.639,117.296 73.257 C 116.913 73.729,116.265 74.404,115.855 74.757 C 114.183 76.201,114.000 76.521,114.000 78.000 C 114.000 79.966,113.166 80.800,111.200 80.800 C 109.234 80.800,108.400 81.634,108.400 83.600 C 108.400 85.639,107.580 86.400,105.382 86.400 C 103.857 86.400,103.543 86.550,103.040 87.522 C 102.721 88.139,101.996 88.855,101.430 89.114 C 100.577 89.502,100.400 89.854,100.400 91.159 C 100.400 93.299,100.101 93.927,98.752 94.625 C 97.754 95.141,97.600 95.450,97.600 96.941 C 97.600 99.237,96.411 100.400,94.066 100.400 C 92.691 100.400,92.305 100.571,91.957 101.334 C 91.723 101.848,91.007 102.578,90.366 102.957 C 89.359 103.551,89.200 103.885,89.200 105.407 C 89.200 107.080,88.143 108.800,87.116 108.800 C 86.933 108.800,86.591 109.220,86.357 109.734 C 86.123 110.248,85.407 110.978,84.766 111.357 C 83.780 111.939,83.600 112.298,83.600 113.682 C 83.600 115.232,83.379 115.534,79.400 119.428 L 75.200 123.537 75.200 126.401 L 75.200 129.265 71.632 132.832 C 68.368 136.097,67.933 136.400,66.512 136.400 C 64.099 136.400,64.000 136.671,64.000 143.257 C 64.000 149.913,63.781 150.400,60.791 150.400 C 58.515 150.400,58.400 150.728,58.400 157.200 C 58.400 164.145,58.485 164.000,54.400 164.000 C 50.319 164.000,50.400 163.864,50.400 170.726 L 50.400 176.492 49.000 177.774 L 47.600 179.057 47.600 186.128 C 47.600 194.806,47.603 194.800,43.080 194.800 C 39.072 194.800,39.200 194.536,39.200 202.818 C 39.200 210.703,39.036 211.200,36.442 211.200 C 33.512 211.200,33.600 210.862,33.600 222.152 C 33.600 234.176,33.824 233.600,29.149 233.600 C 27.357 233.600,25.968 233.792,25.680 234.080 C 24.983 234.777,24.983 329.223,25.680 329.920 C 25.970 330.210,27.373 330.400,29.218 330.400 C 33.452 330.400,33.600 330.599,33.600 336.317 C 33.600 341.279,33.771 341.594,36.474 341.606 C 38.726 341.617,38.980 342.015,39.200 345.884 L 39.400 349.400 42.645 349.515 C 47.008 349.670,47.517 350.185,47.681 354.606 L 47.800 357.800 52.384 357.914 C 58.156 358.057,58.400 358.227,58.400 362.088 C 58.400 365.787,58.768 366.400,60.986 366.400 C 62.756 366.400,63.596 366.897,64.417 368.431 C 64.785 369.120,65.299 369.200,69.352 369.200 C 75.011 369.200,75.200 369.344,75.200 373.651 C 75.200 377.421,75.384 377.600,79.260 377.600 C 82.332 377.600,82.369 377.612,83.427 379.000 L 84.495 380.400 111.027 380.400 L 137.559 380.400 138.627 379.000 L 139.695 377.600 144.167 377.600 C 149.543 377.600,149.600 377.560,149.600 373.809 C 149.600 369.234,149.653 369.200,156.775 369.200 L 162.705 369.200 163.773 367.800 L 164.841 366.400 169.340 366.400 C 174.789 366.400,174.800 366.392,174.800 362.382 C 174.800 358.014,174.823 358.000,182.084 358.000 L 187.905 358.000 188.961 356.616 C 189.997 355.258,190.077 355.230,193.308 355.116 L 196.600 355.000 196.720 353.151 C 196.918 350.098,197.717 349.650,203.211 349.514 L 207.800 349.400 207.918 346.212 L 208.037 343.025 210.166 340.912 L 212.295 338.800 214.974 338.800 C 218.973 338.800,219.200 338.588,219.200 334.848 C 219.200 331.140,219.719 330.400,222.322 330.400 C 223.696 330.400,224.102 330.211,224.682 329.300 C 225.649 327.779,225.962 327.613,227.877 327.606 C 229.314 327.601,229.657 327.428,230.264 326.399 C 230.654 325.739,231.290 325.098,231.678 324.975 C 232.066 324.852,232.696 324.222,233.078 323.575 C 233.460 322.928,234.090 322.298,234.478 322.175 C 234.866 322.052,235.496 321.422,235.878 320.775 C 236.260 320.128,236.890 319.498,237.278 319.375 C 237.666 319.252,238.296 318.622,238.678 317.975 C 239.060 317.328,239.690 316.698,240.078 316.575 C 240.466 316.452,241.096 315.822,241.478 315.175 C 241.860 314.528,242.490 313.898,242.878 313.775 C 243.266 313.652,243.896 313.022,244.278 312.375 C 244.660 311.728,245.290 311.098,245.678 310.975 C 246.066 310.852,246.696 310.222,247.078 309.575 C 247.460 308.928,248.096 308.296,248.491 308.171 C 248.886 308.046,249.475 307.429,249.800 306.800 C 250.125 306.171,250.755 305.541,251.200 305.400 C 251.645 305.259,252.275 304.629,252.600 304.000 C 252.925 303.371,253.555 302.741,254.000 302.600 C 254.445 302.459,255.073 301.832,255.396 301.208 C 256.296 299.467,256.828 299.555,259.100 301.820 L 261.200 303.913 261.200 327.550 L 261.200 351.187 270.207 360.193 L 279.213 369.200 282.186 369.200 C 285.114 369.200,285.176 369.221,286.227 370.600 L 287.295 372.000 301.400 372.000 L 315.505 372.000 316.573 370.600 C 317.503 369.380,317.863 369.200,319.373 369.200 C 320.882 369.200,321.242 369.020,322.173 367.800 L 323.241 366.400 327.773 366.400 L 332.305 366.400 333.373 365.000 C 334.303 363.780,334.663 363.600,336.173 363.600 C 337.682 363.600,338.042 363.420,338.973 362.200 C 339.909 360.973,340.259 360.800,341.806 360.800 C 343.139 360.800,343.673 360.611,343.983 360.031 C 344.805 358.496,345.644 358.000,347.418 358.000 C 348.969 358.000,349.253 357.857,349.797 356.806 C 350.423 355.595,351.079 355.302,353.600 355.108 C 354.984 355.001,355.002 354.975,355.217 352.833 C 355.372 351.293,355.651 350.540,356.182 350.233 C 356.870 349.835,357.275 349.454,359.068 347.520 C 359.442 347.116,360.450 346.791,361.549 346.720 L 363.400 346.600 363.613 344.477 C 363.854 342.077,364.320 341.615,366.504 341.606 C 367.555 341.602,368.217 341.341,368.704 340.740 C 369.397 339.883,370.266 339.007,371.271 338.149 C 371.562 337.901,372.113 337.316,372.496 336.849 C 372.995 336.240,373.646 336.000,374.800 336.000 C 375.963 336.000,376.600 335.762,377.104 335.140 C 377.797 334.283,378.666 333.407,379.671 332.549 C 379.962 332.301,380.489 331.761,380.843 331.349 C 381.196 330.937,381.871 330.287,382.343 329.904 C 382.958 329.404,383.200 328.760,383.200 327.619 C 383.200 326.172,384.305 324.400,385.208 324.400 C 385.349 324.400,385.695 323.970,385.976 323.444 C 386.258 322.918,386.915 322.259,387.437 321.980 C 387.960 321.701,388.491 321.144,388.618 320.744 C 388.745 320.344,389.378 319.704,390.025 319.322 C 390.672 318.940,391.304 318.304,391.429 317.909 C 391.554 317.514,392.171 316.925,392.800 316.600 C 393.429 316.275,394.059 315.645,394.200 315.200 C 394.341 314.755,394.989 314.116,395.641 313.779 L 396.824 313.167 396.712 308.283 L 396.600 303.400 390.392 303.290 L 384.184 303.181 383.484 304.366 C 383.099 305.018,382.466 305.652,382.078 305.775 C 381.690 305.898,381.060 306.528,380.678 307.175 C 380.296 307.822,379.666 308.452,379.278 308.575 C 378.890 308.698,378.254 309.339,377.864 309.999 C 377.474 310.660,376.998 311.200,376.806 311.200 C 375.981 311.200,375.200 312.562,375.200 314.000 C 375.200 315.978,374.368 316.800,372.368 316.800 C 371.240 316.800,370.594 317.044,370.096 317.657 C 369.713 318.129,369.063 318.804,368.651 319.157 C 368.239 319.511,367.699 320.042,367.451 320.338 C 367.203 320.633,366.550 321.304,366.000 321.829 C 365.450 322.353,364.847 322.948,364.660 323.151 C 363.449 324.466,362.819 325.082,362.060 325.696 C 361.413 326.220,361.200 326.833,361.200 328.173 C 361.200 329.729,361.048 330.045,360.000 330.664 C 359.340 331.054,358.800 331.514,358.800 331.686 C 358.800 332.574,357.093 333.600,355.616 333.600 C 354.648 333.600,353.831 333.848,353.516 334.238 C 353.232 334.588,352.550 335.304,352.000 335.829 C 350.967 336.813,350.838 336.947,349.560 338.360 C 349.052 338.922,348.315 339.200,347.336 339.200 C 346.006 339.200,345.487 339.588,341.717 343.400 C 337.903 347.256,337.439 347.600,336.055 347.600 C 334.835 347.600,334.311 347.867,333.308 349.000 C 332.307 350.130,331.779 350.400,330.571 350.400 C 329.249 350.400,328.780 350.706,326.586 353.000 L 324.098 355.600 321.069 355.600 C 318.078 355.600,318.028 355.617,316.973 357.000 L 315.905 358.400 305.703 358.400 L 295.502 358.400 293.014 355.800 C 290.813 353.499,290.354 353.200,289.018 353.200 C 287.803 353.200,287.257 352.926,286.226 351.800 C 285.234 350.717,284.630 350.400,283.561 350.400 C 280.985 350.400,280.400 349.591,280.400 346.025 C 280.400 342.918,280.390 342.887,279.000 341.827 L 277.600 340.759 277.600 319.427 L 277.600 298.095 279.000 297.027 L 280.400 295.959 280.400 288.776 C 280.400 281.952,280.442 281.557,281.245 280.896 C 283.286 279.213,283.200 279.731,283.200 269.192 L 283.200 259.241 284.600 258.173 C 285.820 257.242,286.000 256.882,286.000 255.373 C 286.000 253.863,286.180 253.503,287.400 252.573 L 288.800 251.505 288.800 244.200 L 288.800 236.895 290.200 235.827 C 291.420 234.897,291.600 234.537,291.600 233.027 C 291.600 231.518,291.780 231.158,293.000 230.227 L 294.400 229.159 294.400 223.202 L 294.400 217.245 295.600 216.536 C 296.590 215.952,296.800 215.568,296.800 214.346 C 296.800 212.304,297.112 211.666,298.448 210.975 L 299.600 210.379 299.600 203.010 L 299.600 195.641 301.000 194.573 L 302.400 193.505 302.400 182.106 L 302.400 170.708 303.800 169.426 L 305.200 168.143 305.200 140.266 L 305.200 112.389 301.806 108.994 L 298.411 105.600 295.858 105.600 L 293.304 105.600 289.852 108.983 L 286.400 112.366 286.400 136.154 C 286.400 161.837,286.509 160.471,284.369 161.617 C 283.653 162.000,283.600 162.537,283.600 169.394 L 283.600 176.759 282.200 177.827 L 280.800 178.895 280.800 187.600 L 280.800 196.305 279.400 197.373 L 278.000 198.441 278.000 202.854 L 278.000 207.268 276.600 208.508 C 275.240 209.712,275.200 209.831,275.200 212.678 C 275.200 215.173,275.075 215.711,274.355 216.304 C 272.607 217.745,272.400 218.097,272.400 219.632 C 272.400 220.749,272.154 221.411,271.555 221.904 C 269.594 223.520,269.600 223.502,269.600 228.008 L 269.600 232.359 268.200 233.427 C 267.003 234.340,266.800 234.732,266.800 236.126 C 266.800 237.625,266.572 237.974,264.000 240.427 C 261.428 242.880,261.200 243.229,261.200 244.728 C 261.200 246.122,260.997 246.514,259.800 247.427 C 258.586 248.353,258.400 248.721,258.400 250.200 C 258.400 251.679,258.214 252.047,257.000 252.973 C 255.776 253.907,255.600 254.260,255.600 255.793 C 255.600 257.284,255.421 257.673,254.400 258.400 C 253.411 259.104,253.200 259.534,253.200 260.847 C 253.200 262.291,252.940 262.693,250.400 265.173 C 247.948 267.567,247.600 268.088,247.600 269.361 C 247.600 270.677,247.198 271.216,243.400 274.991 C 239.582 278.786,239.200 279.299,239.200 280.639 C 239.200 282.006,238.792 282.514,233.600 287.614 C 228.438 292.684,228.000 293.228,228.000 294.567 C 228.000 295.925,227.457 296.559,219.600 304.372 C 211.774 312.154,211.200 312.823,211.200 314.162 C 211.200 316.450,202.338 325.200,200.020 325.200 C 198.685 325.200,198.275 325.417,197.373 326.600 C 196.442 327.820,196.082 328.000,194.573 328.000 C 193.063 328.000,192.703 328.180,191.773 329.400 C 190.865 330.590,190.464 330.800,189.101 330.800 C 187.636 330.800,187.265 331.043,184.827 333.600 C 182.430 336.113,182.000 336.400,180.627 336.400 C 179.253 336.400,178.824 336.687,176.427 339.200 L 173.757 342.000 168.060 342.000 L 162.362 342.000 160.381 343.981 C 158.685 345.677,158.400 346.186,158.400 347.519 C 158.400 350.013,157.708 350.354,152.384 350.486 L 147.800 350.600 147.672 352.399 C 147.457 355.433,147.097 355.600,140.771 355.600 C 134.508 355.600,134.191 355.671,133.375 357.248 L 132.779 358.400 128.210 358.400 L 123.641 358.400 122.573 359.800 L 121.505 361.200 111.173 361.200 L 100.841 361.200 99.773 359.800 L 98.705 358.400 94.200 358.400 L 89.695 358.400 88.627 357.000 C 87.702 355.787,87.332 355.600,85.860 355.600 C 83.736 355.600,83.200 355.076,83.200 353.000 C 83.200 350.736,82.710 350.400,79.409 350.400 C 75.260 350.400,74.800 349.966,74.800 346.057 C 74.800 342.019,74.775 342.000,69.520 342.000 C 63.681 342.000,63.600 341.919,63.600 336.080 C 63.600 331.161,63.420 330.800,60.967 330.800 C 59.526 330.800,59.147 330.607,58.227 329.400 C 57.166 328.008,57.140 328.000,54.002 328.000 C 49.664 328.000,49.600 327.893,49.600 320.639 L 49.600 315.057 48.200 313.774 L 46.800 312.492 46.800 281.863 L 46.800 251.234 48.200 250.117 L 49.600 249.000 49.600 237.789 C 49.600 224.184,49.394 224.800,53.943 224.800 C 58.088 224.800,58.000 224.946,58.000 218.086 L 58.000 212.332 59.400 211.092 L 60.800 209.853 60.800 205.526 C 60.800 200.963,60.750 201.107,62.971 199.284 C 63.440 198.900,63.600 198.015,63.600 195.813 C 63.600 192.767,63.885 192.118,65.631 191.183 C 66.211 190.873,66.400 190.339,66.400 189.014 C 66.400 187.244,66.897 186.404,68.431 185.583 C 69.121 185.214,69.200 184.701,69.200 180.606 L 69.200 176.041 70.600 174.973 C 71.990 173.913,72.000 173.882,72.000 170.773 C 72.000 167.663,72.010 167.633,73.400 166.573 C 74.597 165.660,74.800 165.268,74.800 163.874 C 74.800 162.375,75.028 162.026,77.600 159.573 C 80.083 157.205,80.400 156.735,80.400 155.420 C 80.400 154.064,80.761 153.584,84.600 149.828 C 88.558 145.955,88.800 145.626,88.800 144.107 C 88.800 142.735,89.008 142.336,90.200 141.427 C 91.396 140.515,91.600 140.122,91.600 138.731 C 91.600 137.248,91.833 136.879,94.200 134.614 C 96.501 132.413,96.800 131.954,96.800 130.618 C 96.800 129.403,97.074 128.857,98.200 127.826 C 99.320 126.799,99.600 126.245,99.600 125.052 C 99.600 123.733,99.923 123.246,102.400 120.827 C 104.826 118.458,105.200 117.904,105.200 116.675 C 105.200 115.370,105.760 114.698,112.200 108.284 C 118.708 101.802,119.200 101.210,119.200 99.856 C 119.200 97.953,120.336 96.800,122.211 96.800 C 123.538 96.800,124.762 95.661,143.043 77.400 C 161.470 58.994,162.539 58.000,163.904 58.000 C 165.038 58.000,165.615 57.703,166.626 56.600 C 167.652 55.479,168.206 55.200,169.401 55.200 C 170.721 55.200,171.208 54.878,173.627 52.400 C 176.046 49.923,176.533 49.600,177.852 49.600 C 179.045 49.600,179.599 49.320,180.626 48.200 C 181.657 47.074,182.203 46.800,183.418 46.800 C 184.754 46.800,185.213 46.501,187.414 44.200 C 189.679 41.833,190.048 41.600,191.531 41.600 C 192.922 41.600,193.315 41.396,194.227 40.200 C 195.286 38.812,195.321 38.800,198.400 38.800 C 201.479 38.800,201.514 38.788,202.573 37.400 L 203.641 36.000 213.624 36.000 C 223.297 36.000,223.629 35.974,224.304 35.155 C 225.949 33.160,225.794 33.200,231.808 33.200 L 237.559 33.200 238.627 31.800 L 239.695 30.400 244.227 30.400 L 248.759 30.400 249.827 29.000 L 250.895 27.600 256.800 27.600 L 262.705 27.600 263.773 26.200 L 264.841 24.800 287.373 24.800 L 309.905 24.800 310.973 23.400 C 311.898 22.187,312.268 22.000,313.740 22.000 C 316.236 22.000,316.400 21.664,316.400 16.534 C 316.400 11.507,316.233 11.200,313.500 11.200 C 312.457 11.200,311.864 10.880,310.908 9.800 L 309.668 8.400 280.482 8.400 L 251.295 8.400 250.227 9.800" fill="#2563eb" fill-rule="evenodd"/></svg>
